<svg width="22" height="17" viewBox="0 0 22 17" fill="none" xmlns="http://www.w3.org/2000/svg">
<path d="M11.0248 16.0498C8.84147 16.0498 6.9623 15.2623 5.3873 13.6873C3.8123 12.1123 3.0248 10.2331 3.0248 8.0498V6.9248L1.0248 8.9248L0.0498047 7.9498L3.7748 4.2248L7.4998 7.9498L6.52481 8.9248L4.52481 6.9248V8.0498C4.52481 9.83314 5.1623 11.3623 6.4373 12.6373C7.7123 13.9123 9.24147 14.5498 11.0248 14.5498C11.5081 14.5498 11.9665 14.5081 12.3998 14.4248C12.8331 14.3415 13.2415 14.2165 13.6248 14.0498L14.6998 15.1248C14.0998 15.4581 13.4956 15.6956 12.8873 15.8373C12.279 15.979 11.6581 16.0498 11.0248 16.0498ZM18.2498 11.8248L14.5248 8.0998L15.5248 7.0998L17.4998 9.0748V8.0498C17.4998 6.26647 16.8623 4.7373 15.5873 3.4623C14.3123 2.1873 12.7831 1.5498 10.9998 1.5498C10.5165 1.5498 10.0581 1.59564 9.6248 1.6873C9.19147 1.77897 8.78314 1.89147 8.3998 2.0248L7.3248 0.949804C7.9248 0.616471 8.52897 0.383138 9.1373 0.249804C9.74564 0.116471 10.3665 0.0498047 10.9998 0.0498047C13.1831 0.0498047 15.0623 0.837304 16.6373 2.4123C18.2123 3.9873 18.9998 5.86647 18.9998 8.0498V9.1248L20.9998 7.1248L21.9748 8.0998L18.2498 11.8248Z" fill="#4976BA"/>
</svg>
