<svg width="25" height="24" viewBox="0 0 25 24" fill="none" xmlns="http://www.w3.org/2000/svg">
<path d="M13.0333 9.24445C11.313 9.24445 9.9091 10.6484 9.9091 12.3687C9.9091 14.089 11.313 15.4929 13.0333 15.4929C14.7536 15.4929 16.1575 14.089 16.1575 12.3687C16.1575 10.6484 14.7536 9.24445 13.0333 9.24445ZM22.4036 12.3687C22.4036 11.0749 22.4153 9.79288 22.3427 8.50148C22.27 7.00148 21.9278 5.67023 20.831 4.57335C19.7318 3.47413 18.4028 3.13429 16.9028 3.06163C15.6091 2.98898 14.3271 3.0007 13.0357 3.0007C11.7419 3.0007 10.4599 2.98898 9.16847 3.06163C7.66847 3.13429 6.33722 3.47648 5.24035 4.57335C4.14113 5.67257 3.80128 7.00148 3.72863 8.50148C3.65597 9.79523 3.66769 11.0773 3.66769 12.3687C3.66769 13.6601 3.65597 14.9444 3.72863 16.2359C3.80128 17.7359 4.14347 19.0671 5.24035 20.164C6.33956 21.2632 7.66847 21.603 9.16847 21.6757C10.4622 21.7484 11.7443 21.7366 13.0357 21.7366C14.3294 21.7366 15.6114 21.7484 16.9028 21.6757C18.4028 21.603 19.7341 21.2609 20.831 20.164C21.9302 19.0648 22.27 17.7359 22.3427 16.2359C22.4177 14.9444 22.4036 13.6624 22.4036 12.3687ZM13.0333 17.1757C10.3732 17.1757 8.22628 15.0288 8.22628 12.3687C8.22628 9.70851 10.3732 7.56163 13.0333 7.56163C15.6935 7.56163 17.8403 9.70851 17.8403 12.3687C17.8403 15.0288 15.6935 17.1757 13.0333 17.1757ZM18.0372 8.48742C17.4161 8.48742 16.9146 7.98585 16.9146 7.36476C16.9146 6.74367 17.4161 6.2421 18.0372 6.2421C18.6583 6.2421 19.1599 6.74367 19.1599 7.36476C19.1601 7.51224 19.1312 7.65831 19.0748 7.7946C19.0184 7.93089 18.9358 8.05472 18.8315 8.15901C18.7272 8.26329 18.6034 8.34598 18.4671 8.40234C18.3308 8.45869 18.1847 8.4876 18.0372 8.48742Z" fill="white"/>
</svg>
