<svg width="25" height="24" viewBox="0 0 25 24" fill="none" xmlns="http://www.w3.org/2000/svg">
<path d="M6.83958 22.5V9.34338H2.42731V22.5H6.83958ZM4.63402 7.54599C6.17265 7.54599 7.13037 6.53572 7.13037 5.27321C7.10171 3.98223 6.17271 3 4.66321 3C3.15395 3 2.16699 3.98225 2.16699 5.27321C2.16699 6.53578 3.12448 7.54599 4.60521 7.54599H4.63388H4.63402ZM9.28175 22.5H13.694V15.1527C13.694 14.7595 13.7227 14.3667 13.8392 14.0856C14.1582 13.2999 14.8842 12.4863 16.103 12.4863C17.6996 12.4863 18.3384 13.6928 18.3384 15.4614V22.4999H22.7503V14.956C22.7503 10.9148 20.5736 9.0345 17.6706 9.0345C15.2903 9.0345 14.2452 10.3531 13.6647 11.2512H13.6941V9.34311H9.28185C9.33975 10.5777 9.28185 22.4997 9.28185 22.4997L9.28175 22.5Z" fill="white"/>
</svg>
