<svg width="25" height="24" viewBox="0 0 25 24" fill="none" xmlns="http://www.w3.org/2000/svg">
<path d="M22.9299 6.40204C22.1664 6.72346 21.3462 6.94064 20.4838 7.0388C21.3736 6.53304 22.0392 5.73702 22.3566 4.79928C21.5207 5.27098 20.6058 5.60301 19.6517 5.78092C19.0101 5.13014 18.1603 4.6988 17.2343 4.55385C16.3082 4.40891 15.3577 4.55847 14.5302 4.97933C13.7028 5.40018 13.0448 6.06878 12.6583 6.88131C12.2719 7.69385 12.1786 8.60486 12.393 9.47291C10.6992 9.39212 9.04222 8.97389 7.52957 8.24535C6.01693 7.51682 4.68243 6.49427 3.6127 5.24406C3.24693 5.84347 3.03661 6.53843 3.03661 7.27857C3.0362 7.94486 3.20892 8.60094 3.53943 9.18861C3.86995 9.77628 4.34804 10.2774 4.9313 10.6474C4.25488 10.627 3.59338 10.4533 3.00186 10.1409V10.1931C3.00179 11.1276 3.34206 12.0333 3.96492 12.7566C4.58778 13.4799 5.45487 13.9762 6.41907 14.1613C5.79158 14.3226 5.1337 14.3464 4.49512 14.2308C4.76716 15.0349 5.29707 15.738 6.01066 16.2418C6.72425 16.7456 7.5858 17.0247 8.4747 17.0402C6.96574 18.1655 5.10219 18.7759 3.18383 18.7733C2.84402 18.7733 2.50448 18.7545 2.16699 18.7168C4.11424 19.9062 6.38098 20.5374 8.69599 20.535C16.5326 20.535 20.8167 14.3689 20.8167 9.02119C20.8167 8.84745 20.8121 8.67197 20.8039 8.49823C21.6372 7.92573 22.3565 7.2168 22.9281 6.40465L22.9299 6.40204Z" fill="white"/>
</svg>
