<svg width="25" height="24" viewBox="0 0 25 24" fill="none" xmlns="http://www.w3.org/2000/svg">
<path d="M12.7827 4.5H12.9001C13.9839 4.50378 19.4758 4.54162 20.9565 4.92251C21.4041 5.03876 21.812 5.26534 22.1395 5.57963C22.4669 5.89391 22.7023 6.28488 22.8223 6.71346C22.9554 7.19273 23.0491 7.82713 23.1123 8.48171L23.1255 8.61288L23.1545 8.9408L23.1651 9.07197C23.2508 10.2247 23.2613 11.3044 23.2627 11.5402V11.6348C23.2613 11.8795 23.2495 13.0322 23.1545 14.2329L23.144 14.3654L23.1321 14.4965C23.0662 15.218 22.9686 15.9343 22.8223 16.4615C22.7027 16.8903 22.4674 17.2814 22.1399 17.5958C21.8124 17.9101 21.4043 18.1366 20.9565 18.2525C19.427 18.646 13.6134 18.6737 12.8078 18.675H12.6206C12.2131 18.675 10.528 18.6674 8.76112 18.6094L8.53696 18.6018L8.42225 18.5968L8.19678 18.588L7.9713 18.5791C6.5077 18.5173 5.11398 18.4177 4.47184 18.2512C4.02417 18.1354 3.61618 17.9092 3.28872 17.5951C2.96127 17.281 2.72586 16.8901 2.60607 16.4615C2.45971 15.9356 2.36214 15.218 2.29621 14.4965L2.28566 14.3641L2.27511 14.2329C2.21004 13.3783 2.17398 12.5219 2.16699 11.6651L2.16699 11.5099C2.16963 11.2388 2.18018 10.3017 2.25138 9.26746L2.26061 9.13755L2.26457 9.07197L2.27511 8.9408L2.30412 8.61288L2.31731 8.48171C2.3806 7.82713 2.47422 7.19147 2.60739 6.71346C2.72698 6.2847 2.9623 5.89355 3.28976 5.57921C3.61723 5.26488 4.02533 5.03841 4.47316 4.92251C5.1153 4.75855 6.50902 4.65765 7.97262 4.59459L8.19678 4.58576L8.42357 4.5782L8.53696 4.57441L8.76244 4.56558C10.0173 4.52696 11.2727 4.50552 12.5283 4.50126H12.7827V4.5ZM10.6058 8.54856V14.6252L16.087 11.5881L10.6058 8.54856Z" fill="white"/>
</svg>
